<svg width="466" height="478" viewBox="0 0 466 478" fill="none" xmlns="http://www.w3.org/2000/svg">
<path d="M458.7 212.636C439.1 178.536 417.3 144.636 393.2 111.436C369.1 78.1357 343.7 46.8357 317.4 17.6357C304.7 3.53574 285.4 -2.76426 266.9 1.13574C228.4 9.23574 189.5 19.5357 150.4 32.1357C111.3 44.7357 73.7 59.2357 37.8 75.2357C20.5 82.9357 8.5 99.3357 6.5 118.236C2.3 157.336 0 197.536 0 238.636C0 279.736 2.1 319.936 6.2 359.036C8.2 377.836 20.1 394.336 37.4 402.036C73.3 418.136 110.8 432.736 149.9 445.436C189 458.136 227.9 468.536 266.3 476.736C284.8 480.636 304.1 474.436 316.9 460.336C343.3 431.236 368.7 399.936 392.9 366.736C417.1 333.536 439 299.736 458.7 265.636C468.2 249.236 468.2 228.936 458.7 212.536V212.636Z" fill="#29614A"/>
</svg>
